<svg xmlns="http://www.w3.org/2000/svg" viewBox="0 0 1000 1000"><defs><style>.cls-1{stroke:#fff;stroke-miterlimit:10;stroke-width:12px;}</style></defs><g id="blue"><path class="cls-1" d="M239.74,696.76c16.83-34.87,60.56-112.13,151.92-159.6,49-25.45,91.78-47.69,141.85-36.41,69.56,15.67,103.77,84.89,195.77,89.5,7.4.37,13.39.23,16.83.1a143.48,143.48,0,0,0-21.68,28.46C696.26,667.49,711,710.2,706.6,751c-8.37,78-84.2,129.07-114.49,149.5-86.41,58.26-176.9,52.4-203.23,49.75"/><path class="cls-1" d="M-93.82,517.22c-17.91-25.47-55.55-86.17-58.11-166.25-1.37-42.93-2.57-80.44,20.91-109,32.64-39.72,89.76-34,122.15-93.16C-6.26,144-4.44,140-3.43,137.65A129.23,129.23,0,0,0,8.66,163.71c23.51,38.66,56.72,46.4,82.58,66.07,49.37,37.52,59.33,108.8,63.3,137.27C165.89,448.27,133.13,505.9,123,522.28"/><path class="cls-1" d="M311.22,767.48S397,592.57,586.1,669.19c0,0-12.7,179-215.52,191.91"/><path class="cls-1" d="M-23.82,498.82s-89.44-128.63,22-222.67c0,0,115.48,81.86,59.41,221.69"/><path class="cls-1" d="M-286.11,888.32c-44.82-22.65-144.12-81-204.94-198.45-32.61-63-61.1-118-46.44-181C-517.13,421.45-428,380.79-421.78,264.5c.5-9.36.34-16.94.18-21.3A192.25,192.25,0,0,0-385,271.73c62.56,37.54,117.56,20.53,170.11,27.65C-114.66,313-49.08,410.93-22.88,450.06,51.84,561.68,44,676,40.55,709.25"/><path class="cls-1" d="M-30.39,708.49c-3-49.72-2.66-163.93,66.71-274.77C73.51,374.29,106,322.37,166.51,303.45c84.06-26.28,162.49,29.78,264-23.06,8.16-4.25,14.5-8.18,18.11-10.5a192.65,192.65,0,0,0-6.09,45.59c-.87,72.36,40.69,111,60.61,159.54,38,92.69-12.48,197.84-32.65,239.85-57.55,119.82-158.15,170.3-188,183.92"/><path class="cls-1" d="M276.51,853C310.9,823.92,394,762.69,514.79,757.35c60.31-2.66,120.18-6,170.14,31.83,61.63,46.69,62.18,120.59,157.71,193,11.48,8.7,21.38,15.14,27.77,19.12a103.19,103.19,0,0,0-34.11,10.47c-51.83,26.69-53.77,85.9-80.72,133.32-45.26,79.65-150.93,96.7-193.15,103.51C442,1268,347,1216.39,319.78,1200.36"/><path class="cls-1" d="M88.92,742.74S75.4,492.52,324.49,459.21c0,0,94.34,208.8-115.45,351.1"/><path class="cls-1" d="M298.32,937.65s199.09-129.74,342.57,55.12c0,0-127.42,175.2-342,73.76"/><path class="cls-1" d="M40.37,767.33c-1.37-22.43-1.23-74,30.83-124,17.19-26.82,32.2-50.24,60.16-58.78,38.84-11.85,75.09,13.44,122-10.4,3.77-1.92,6.7-3.69,8.37-4.74A85.4,85.4,0,0,0,258.89,590c-.4,32.65,18.8,50.07,28,72,17.56,41.82-5.77,89.26-15.09,108.22-26.6,54.06-73.08,76.83-86.87,83"/><path class="cls-1" d="M221.2,913.82c18.12-11.83,61.37-36.14,119-32C371.14,884,398.15,886,419,906.2c29,28.12,25.66,71.6,68.68,101,3.46,2.37,6.39,4.07,8.08,5a78.91,78.91,0,0,0-18.61,7.31c-27.55,15.13-32.71,40.07-46.55,58.46-26.4,35.09-77.62,37.31-98.08,38.2-58.37,2.54-100.3-27-112.23-36.1"/><path class="cls-1" d="M88.85,781.18S83,673.3,190.41,658.94c0,0,40.68,90-49.77,151.37"/><path class="cls-1" d="M218.52,968.43s74.83-65.85,162,26.39c0,0-36.87,88.39-146.38,38.28"/><path class="cls-1" d="M-84.35,779.39c-42-7.27-73.45-42.78-75.45-84.58-1.91-40,23.55-77,62.22-89.92,0,0,36.25-75.41,111.66-55.11s75.41,85.57,75.41,85.57a82,82,0,0,1,36.26,29c12.73,18.55,20.35,46.9,10.15,69.61-12.63,28.12-51.61,45.43-51.61,45.43h0"/><path class="cls-1" d="M233.1,1038.44c27.31-32.76,73.78-42.22,111-23.05,35.59,18.34,54.93,58.91,46.77,98.84,0,0,47.18,69.1-8.11,124.26S270.92,1261,270.92,1261a82,82,0,0,1-43.24,16.9c-22.43,1.75-50.79-5.82-65.36-26-18-25-13.54-67.41-13.54-67.41h0"/><path class="cls-1" d="M149,817.53c-14.71-40,.33-85,35.53-107.63,33.68-21.64,78.48-18.11,109,8.92,0,0,83.43-6.3,103.56,69.16s-36.4,108.09-36.4,108.09a82,82,0,0,1-7,45.9c-9.7,20.3-30.44,41.07-55.21,43.59-30.67,3.13-65.14-22-65.14-22h0"/><path class="cls-1" d="M25.13,763.87c-9.61-12.73-11.92-28.56-5.62-40.75,5-9.6,13.6-13.72,16.05-14.85,18.81-8.65,37.57,2.9,39.32,4,8.4-61.09-43.33-49.44-43.33-49.44,2.81-21-17.65-32.41-17.65-32.41C-19,622-27.43,650.5-27.43,650.5c-60.58-7.22-49.34,50.55-49.34,50.55,14-9.29,31-12,43.33-5.24,18.49,10.05,26.73,41.17,9.62,68.06"/><path class="cls-1" d="M218.83,907.44c6.22-14.69,18.78-24.6,32.49-25.24,10.78-.5,18.67,4.92,20.87,6.48,16.91,12,16.28,34,16.19,36.05,57.1-23.26,21.15-62.24,21.15-62.24,19.54-8,19.24-31.49,19.24-31.49-9.16-32.7-38-25.76-38-25.76-24-56.07-68.45-17.46-68.45-17.46,15,7.47,25.84,20.84,26.21,34.9.54,21.05-22.29,43.75-54.13,42.37"/><circle class="cls-1" cx="-0.03" cy="1000.06" r="236.19"/><circle class="cls-1" cx="-0.03" cy="1000.06" r="157.23"/></g></svg>