<svg id="Layer_1" data-name="Layer 1" xmlns="http://www.w3.org/2000/svg" viewBox="0 0 1000 1000"><defs><style>.cls-1,.cls-2{fill:none;opacity:0.98;}.cls-2{stroke:#fff;stroke-linecap:round;stroke-linejoin:round;stroke-width:5px;}</style></defs><title>portrait</title><path class="cls-1" d="M426.8,301.68s.81-21.22,26.11-26.11,40.81,2.44,52.23,6.53"/><path class="cls-1" d="M405.17,249a8.58,8.58,0,0,0,.82,4.9,15,15,0,0,0,3.26,4.9c4.33,3.91,18-5.46,35.09-11.43,11.44-4,21.14-5.3,30.2-6.53,10.56-1.43,15.84-2.15,22.85-1.63,8,.59,17.41,3.67,35.91,9.79h0a35.09,35.09,0,0,0-3.77-5.61c-11.24-13.6-29.8-14.71-36.22-14.79a168.9,168.9,0,0,0-82.43,14.69C410.38,243.51,405.92,245.21,405.17,249Z"/><path class="cls-1" d="M296.63,324.94h0c10.5-.87,15.76-1.31,17.95-1.63a108.84,108.84,0,0,0,20.4-4.9,95.13,95.13,0,0,0,9.8-4.08A27.42,27.42,0,0,0,333,304.39a28.08,28.08,0,0,0-16.76-1.48c-17.14,3.15-25.78,20.45-26.93,22.85,0,0-8.16,1.63-11.43-2.45"/><path class="cls-1" d="M326.82,262.92a19.42,19.42,0,0,1,6.53.81c2.45.74,4.44,1.35,5.71,3.27.84,1.27,1.56,3.4.92,5.05-1.29,3.32-7.62,3.59-14,3.92-5.68.3-14.47.8-26.12,1.64-16.45,5.43-24.29,10-27.75,13.87-6.53,7.35-2.45-8.16,4.9-15.51,8.7-8.7,21.11-10.82,24.72-11.34l.58-.08C313.51,263.6,322.14,263.11,326.82,262.92Z"/><path class="cls-1" d="M370.08,307s.81,37.54-2.45,49.78"/><path class="cls-1" d="M427.2,400s13.06-2.44,13.06-22.85"/><path class="cls-1" d="M432.92,298.83a114.33,114.33,0,0,0,20.4,0,108.66,108.66,0,0,0,11.43-1.64A93,93,0,0,0,494.94,285"/><path class="cls-1" d="M442.71,267c.82,5.71,7.55,9.16,7.55,9.16s-7,13,6.18,22.34"/><path class="cls-1" d="M503.1,281.35a6.65,6.65,0,0,0,7.35-1.29"/><path class="cls-1" d="M293.22,319.1s-12.1-2.32-15.37-8"/><path class="cls-1" d="M299.65,311.07s-9.55-2.45-12.82-9"/><path class="cls-1" d="M308.4,305.51a15,15,0,0,1-6.06-9.13"/><path class="cls-1" d="M319.54,302.09s-2.33-.82-4.46-6.53"/><path class="cls-1" d="M316.21,302.91a14.71,14.71,0,0,0,.82,11.42,14.42,14.42,0,0,0,7.34,6.53"/><path class="cls-1" d="M499.61,280.06s7.57-1.64,10-9"/><path class="cls-1" d="M484.7,275.57s6.16-5.31,8.61-11"/><path class="cls-1" d="M472.87,273.94s6.57-5.31,5.75-12.66"/><path class="cls-1" d="M463.11,273.94a16.26,16.26,0,0,1-5.71-10.21"/><path class="cls-1" d="M353.75,452.08c-.06-.7,5.28-1.13,13.88-3.27,17.89-4.45,24.07-9.87,31-7.34a11.62,11.62,0,0,0,6.53.82,11.35,11.35,0,0,0,5.71-3.27c5.38-5.28,21.73-5.66,31-5.71,26.6-.14,39.9.09,40,1.63s-9.85,1.42-27.94,6.5c-14.75,4.15-42.75,13.94-50.4,13.09a61,61,0,0,0-11.79-1.48h0c-6.36-.31-7.84.17-12.95.11-3.42-.05-3-.26-10.35-.26h0C358.68,452.7,353.8,452.6,353.75,452.08Z"/><path class="cls-1" d="M355.39,452.26c-.47.42,1.27,2.41,15.5,22,4.8,6.62,8,10.9,13.88,14.69a43.17,43.17,0,0,0,10.61,4.9c19,5.91,37.2-2.48,42.43-4.9a83,83,0,0,0,9-4.89,89.61,89.61,0,0,0,28.57-28.57c5.16-8.65,9.39-20.84,7.34-22-2.32-1.36-9.21,13.39-27.78,24.55a103.76,103.76,0,0,1-16.59,7.8c-7.4,2.88-14.82,5.75-25,6.82a64.18,64.18,0,0,1-25.86-1.81c-9.21-2.71-16.08-7.35-20.66-10.43C359.46,455.47,356,451.66,355.39,452.26Z"/><path class="cls-1" d="M284.38,174s-23.66,84.88-9,168.12c0,0-5.72,111,65.29,166.49a403.38,403.38,0,0,0,33.46,30.2C401.62,560.88,413,564,416.6,564.88h0c15.14,6.06,30.19,1,36-.78,36.9-11.62,84.82-59.61,84.82-59.61,25.44-25.48,38.16-38.21,45.7-53.05,14.14-27.79,14.53-52.74,14.69-89a466.1,466.1,0,0,0-13-111"/><path class="cls-1" d="M366,405.74a5.21,5.21,0,0,1,2.44-6.53c1.54-.67,6.53,1.36,7.35,1.63a21.64,21.64,0,0,0,24.48-4.08c.27-.36,4-5.21,10.08-4.8a11.78,11.78,0,0,1,7.88,4"/><path class="cls-1" d="M366,576.31a753.51,753.51,0,0,0-93,16.32c-45.62,11-74.39,18.21-106.91,39.17-17.64,11.37-38.23,25-53.87,50.6-7.9,13-12,26.9-21.22,72.64-7,34.73-10.58,65.57-13,97.93a1304.38,1304.38,0,0,0-3.27,135.48"/><path class="cls-1" d="M164.41,611.4s84.88.82,81.62-200.77-1.64-248.91,17.13-292.17C273.52,94.6,287.6,73,307.59,55.37c5.38-4.74,26.93-23.07,61.67-34C414.69,7,473.49,8.21,479.44,26.24c1.11,3.39.81,8.72-5.72,17.14-13.56,34.45-31.81,51.78-45.7,61.21-25.64,17.41-48.15,15.86-103.65,40-13.5,5.87-24.26,11.22-31,14.69"/><path class="cls-1" d="M647.56,283.32a85.69,85.69,0,0,1,4.08,35.91c-1.17,11-3.36,9.94-4.9,22.85-2.2,18.47.67,28-5.65,39.48a20.86,20.86,0,0,1-6.59,7c-8.68,6.07-13.89,5.69-16.88,4"/><path class="cls-1" d="M459.85,107s49,51.41,93.85,66.92"/><path class="cls-1" d="M533.3,180.49s11.43,41.62,63.66,63.66"/><path class="cls-1" d="M610.83,298.83s32.65-17.14,32.65-31"/><path class="cls-1" d="M638.58,194.36s38.36,115.08,13.87,197.5,4.08,188.53,4.08,188.53,62.85,283.19-17.95,364"/><path class="cls-1" d="M597,464.5C598.48,486.85,601,520,605,560c9,89.27,16.23,121.11,18.05,151,3.11,50.72-7.73,123.66-71.81,217.9"/><path class="cls-1" d="M489.23,19.71c22.37-.34,55.66,2.72,87.32,22,45.09,27.5,61.11,72.23,88.15,147.72,9.68,27,27.29,81.25,37.54,156.69,7.59,55.91.29,61.9,9.08,135.78,2.94,24.75,8.61,65.79,19.48,115.59,11.65,53.36,19,69.76,26.93,102,14.22,57.8,11.58,135.62,5.72,288.91h0"/><path class="cls-1" d="M745.49,622a633.08,633.08,0,0,1,78.25,51.72c36.39,28.13,54.59,42.2,68.65,64.17,9.79,15.28,18.66,35.35,26.94,133,2.45,29,5.22,69.15,6.52,117.52"/><path class="cls-1" d="M382.32,552.64s3.26,15.51,0,26.12"/><path class="cls-1" d="M373.34,592.63s123.24,121.6,217.09,0"/><path class="cls-1" d="M436.18,271.08a86.94,86.94,0,0,1,62,0"/><path class="cls-1" d="M318.66,295.56s-22,1.63-34.28,17.14"/><path class="cls-2" d="M469.18,274.34a15,15,0,0,1,6.2,6.83c2.9,6.6-.41,12.8-.84,13.58"/></svg>